<svg xmlns="http://www.w3.org/2000/svg" width="0" height="0" style="position:absolute" aria-hidden="true">
 <defs>
  <symbol id="i-move" viewBox="0 0 24 24">
   <g fill="none" stroke="currentColor" stroke-width="2" stroke-linecap="round" stroke-linejoin="round">
    <path d="M5 12h12"/>
    <path d="M13 8l4 4-4 4"/>
    <circle cx="5" cy="12" r="1.6" fill="currentColor" stroke="none"/>
   </g>
  </symbol>
  <symbol id="i-attack" viewBox="0 0 24 24">
   <g fill="none" stroke="currentColor" stroke-width="2" stroke-linecap="round">
    <path d="M5 5l14 14M19 5 5 19"/>
    <path d="M4 6l2-2M18 4l2 2M4 18l2 2M18 20l2-2"/>
   </g>
  </symbol>
  <symbol id="i-glance" viewBox="0 0 24 24">
   <g fill="none" stroke="currentColor" stroke-width="2" stroke-linejoin="round">
    <path d="M3 12c4-6 14-6 18 0-4 6-14 6-18 0Z"/>
    <circle cx="12" cy="12" r="2.6"/>
   </g>
  </symbol>
  <symbol id="i-collect" viewBox="0 0 24 24">
   <g fill="none" stroke="currentColor" stroke-width="2" stroke-linejoin="round" stroke-linecap="round">
    <path d="M12 6l5 4-5 9-5-9Z"/>
    <path d="M19 4v3M20.5 5.5h-3"/>
   </g>
  </symbol>
  <symbol id="i-trade" viewBox="0 0 24 24">
   <g fill="none" stroke="currentColor" stroke-width="2" stroke-linecap="round" stroke-linejoin="round">
    <path d="M12 5v13M8 18h8M5 8h14"/>
    <path d="M5 8l-2 4h4ZM19 8l-2 4h4Z"/>
    <circle cx="12" cy="5" r="1.4"/>
   </g>
  </symbol>
  <symbol id="i-endturn" viewBox="0 0 24 24">
   <g fill="none" stroke="currentColor" stroke-width="2" stroke-linecap="round" stroke-linejoin="round">
    <path d="M7 4h10M7 20h10M7 4l10 8L7 20M17 4 7 12l10 8"/>
   </g>
  </symbol>
  <symbol id="i-flee" viewBox="0 0 24 24">
   <g fill="none" stroke="currentColor" stroke-width="2" stroke-linecap="round" stroke-linejoin="round">
    <path d="M16 8H9a4 4 0 0 0 0 8h8"/>
    <path d="M13 5 9 8l4 3"/>
   </g>
  </symbol>
  <symbol id="i-zoomin" viewBox="0 0 24 24">
   <g fill="none" stroke="currentColor" stroke-width="2" stroke-linecap="round">
    <circle cx="11" cy="11" r="6"/>
    <path d="M16 16l5 5M11 8v6M8 11h6"/>
   </g>
  </symbol>
  <symbol id="i-zoomout" viewBox="0 0 24 24">
   <g fill="none" stroke="currentColor" stroke-width="2" stroke-linecap="round">
    <circle cx="11" cy="11" r="6"/>
    <path d="M16 16l5 5M8 11h6"/>
   </g>
  </symbol>
  <symbol id="i-center" viewBox="0 0 24 24">
   <g fill="none" stroke="currentColor" stroke-width="2" stroke-linecap="round">
    <circle cx="12" cy="12" r="7.5"/>
    <circle cx="12" cy="12" r="2.6"/>
    <path d="M12 2v4M12 18v4M2 12h4M18 12h4"/>
   </g>
  </symbol>
  <symbol id="i-wait" viewBox="0 0 24 24">
   <g fill="none" stroke="currentColor" stroke-width="2" stroke-linecap="round">
    <rect x="8" y="4" width="8" height="4" rx="1"/>
    <path d="M8 8l4 4-4 4"/>
    <rect x="8" y="16" width="8" height="4" rx="1" transform="rotate(180 12 18)"/>
    <path d="M16 8l-4 4 4 4"/>
   </g>
  </symbol>
  <symbol id="i-cancel" viewBox="0 0 24 24">
   <g fill="none" stroke="currentColor" stroke-width="2" stroke-linecap="round">
    <circle cx="12" cy="12" r="8"/>
    <path d="M9 9l6 6M15 9l-6 6"/>
   </g>
  </symbol>
  <symbol id="i-confirm" viewBox="0 0 24 24">
   <g fill="none" stroke="currentColor" stroke-width="2" stroke-linecap="round" stroke-linejoin="round">
    <circle cx="12" cy="12" r="8"/>
    <path d="M8 12l3 3 5-5"/>
   </g>
  </symbol>
  <symbol id="i-heal" viewBox="0 0 24 24">
   <g fill="none" stroke="currentColor" stroke-width="2" stroke-linecap="round" stroke-linejoin="round">
    <path d="M12 4v16M4 12h16"/>
    <circle cx="12" cy="12" r="9"/>
   </g>
  </symbol>
  <symbol id="i-recruit" viewBox="0 0 24 24">
   <g fill="none" stroke="currentColor" stroke-width="2" stroke-linecap="round" stroke-linejoin="round">
    <circle cx="9" cy="7" r="3"/>
    <path d="M3 21v-2a5 5 0 0 1 10 0v2"/>
    <path d="M18 8v6M15 11h6"/>
   </g>
  </symbol>
  <symbol id="i-dismiss" viewBox="0 0 24 24">
   <g fill="none" stroke="currentColor" stroke-width="2" stroke-linecap="round" stroke-linejoin="round">
    <circle cx="9" cy="7" r="3"/>
    <path d="M3 21v-2a5 5 0 0 1 10 0v2"/>
    <path d="M17 9l6 6M23 9l-6 6"/>
   </g>
  </symbol>
  <symbol id="i-waypoint" viewBox="0 0 24 24">
   <g fill="none" stroke="currentColor" stroke-width="2" stroke-linecap="round" stroke-linejoin="round">
    <path d="M6 3v18"/>
    <path d="M6 3l12 4-12 4"/>
    <circle cx="6" cy="21" r="1.5" fill="currentColor" stroke="none"/>
   </g>
  </symbol>
  <symbol id="i-patrol" viewBox="0 0 24 24">
   <g fill="none" stroke="currentColor" stroke-width="2" stroke-linecap="round" stroke-linejoin="round">
    <path d="M12 4a8 8 0 1 0 2.8 15.2"/>
    <path d="M12 4l3 3M15 7l-3 3"/>
    <path d="M12 20a8 8 0 1 0-2.8-15.2"/>
    <path d="M12 20l-3-3M9 17l3-3"/>
   </g>
  </symbol>
 </defs>
</svg>
