<svg xmlns="http://www.w3.org/2000/svg" width="0" height="0" style="position:absolute" aria-hidden="true">
 <defs>
  <symbol id="i-weapon" viewBox="0 0 24 24">
   <g fill="none" stroke="currentColor" stroke-width="2" stroke-linecap="round" stroke-linejoin="round">
    <path d="M6 19l7-7-2-2-7 7 2 2Z"/>
    <path d="M13 12l5-5-2-2-5 5 2 2Z"/>
    <path d="M11 11l-2-4 4-2 3 3-2 4-3-1Z"/>
    <path d="M16 21l5-5"/>
   </g>
  </symbol>
  <symbol id="i-armor" viewBox="0 0 24 24">
   <g fill="none" stroke="currentColor" stroke-width="2" stroke-linecap="round" stroke-linejoin="round">
    <path d="M8 6a4 4 0 0 1 8 0v3l3 2v4l-4 3v3H9v-3l-4-3v-4l3-2V6Z"/>
    <path d="M8 12l-1 2M16 12l1 2"/>
   </g>
  </symbol>
  <symbol id="i-helmet" viewBox="0 0 24 24">
   <g fill="none" stroke="currentColor" stroke-width="2" stroke-linecap="round" stroke-linejoin="round">
    <path d="M7 14c0-3 2-8 5-10 3 2 5 7 5 10"/>
    <path d="M7 14h10"/>
    <path d="M5 14l2 4h10l2-4"/>
    <circle cx="12" cy="14" r="2" fill="currentColor" stroke="none"/>
   </g>
  </symbol>
  <symbol id="i-boots" viewBox="0 0 24 24">
   <g fill="none" stroke="currentColor" stroke-width="2" stroke-linecap="round" stroke-linejoin="round">
    <path d="M6 14l4 6h4l4-6"/>
    <path d="M10 9l-2 3M14 9l2 3"/>
    <path d="M10 10a2 2 0 0 1 4 0"/>
    <path d="M6 14v4M18 14v4"/>
   </g>
  </symbol>
  <symbol id="i-ring" viewBox="0 0 24 24">
   <g fill="none" stroke="currentColor" stroke-width="2" stroke-linecap="round" stroke-linejoin="round">
    <circle cx="12" cy="8" r="5"/>
    <circle cx="12" cy="8" r="2" fill="currentColor" stroke="none"/>
    <path d="M7 20c0-2 2-5 5-5s5 3 5 5"/>
   </g>
  </symbol>
  <symbol id="i-amulet" viewBox="0 0 24 24">
   <g fill="none" stroke="currentColor" stroke-width="2" stroke-linecap="round" stroke-linejoin="round">
    <path d="M14 10a4 4 0 0 0-4 4v3"/>
    <circle cx="12" cy="6" r="2.5"/>
    <path d="M10 17l-2 4h8l-2-4"/>
    <path d="M12 6v4"/>
    <path d="M6 16h12"/>
   </g>
  </symbol>
  <symbol id="i-artifact" viewBox="0 0 24 24">
   <g fill="none" stroke="currentColor" stroke-width="2" stroke-linecap="round" stroke-linejoin="round">
    <path d="M6 14l2-7h8l2 7"/>
    <path d="M6 14l-1 3h14l-1-3"/>
    <path d="M12 14v5"/>
    <path d="M9 19h6"/>
    <path d="M11 7l1-3 1 3"/>
    <circle cx="12" cy="5" r=".8" fill="currentColor" stroke="none"/>
    <path d="M8 2h8"/>
   </g>
  </symbol>
 </defs>
</svg>
