<svg xmlns="http://www.w3.org/2000/svg" width="0" height="0" style="position:absolute" aria-hidden="true">
 <defs>
  <symbol id="g-crucible" viewBox="0 0 24 24">
   <g fill="none" stroke="currentColor" stroke-width="2" stroke-linejoin="round" stroke-linecap="round">
    <path d="M12 3 20 6v6c0 5-4 8-8 9-4-1-8-4-8-9V6Z"/>
    <path d="M12 9c1.6 1.6 1.6 3.2 0 4.8-1.6-1.6-1.6-3.2 0-4.8Z" fill="currentColor" stroke="none"/>
   </g>
  </symbol>
  <symbol id="g-reverie" viewBox="0 0 24 24">
   <g fill="none" stroke="currentColor" stroke-width="2" stroke-linejoin="round">
    <path d="M15.5 4a8 8 0 1 0 0 16 6.6 6.6 0 1 1 0-16Z"/>
    <circle cx="14" cy="12" r="1.4" fill="currentColor" stroke="none"/>
   </g>
  </symbol>
  <symbol id="g-verdant" viewBox="0 0 24 24">
   <g fill="none" stroke="currentColor" stroke-width="2" stroke-linecap="round" stroke-linejoin="round">
    <path d="M12 21V10"/>
    <path d="M12 11C9 9 9 5.5 12 4c3 1.5 3 5 0 7Z"/>
    <path d="M12 14c-2.6-.6-4.6-2.4-4.4-5 2.6.2 4.4 2 4.4 5Z"/>
    <path d="M12 14c2.6-.6 4.6-2.4 4.4-5-2.6.2-4.4 2-4.4 5Z"/>
   </g>
  </symbol>
  <symbol id="g-archive" viewBox="0 0 24 24">
   <g fill="none" stroke="currentColor" stroke-width="2" stroke-linejoin="round">
    <path d="M12 4 20 12 12 20 4 12Z"/>
    <path d="M12 8v8"/>
    <circle cx="12" cy="12" r="1.3" fill="currentColor" stroke="none"/>
   </g>
  </symbol>
  <symbol id="g-hearth" viewBox="0 0 24 24">
   <g fill="none" stroke="currentColor" stroke-width="2" stroke-linecap="round" stroke-linejoin="round">
    <path d="M4 12 12 5l8 7"/>
    <path d="M12 19c2.2-2 2.2-4.4 0-6.6-2.2 2.2-2.2 4.6 0 6.6Z" fill="currentColor" stroke="none"/>
    <path d="M7 19h10"/>
   </g>
  </symbol>
  <symbol id="g-masque" viewBox="0 0 24 24">
   <g fill="none" stroke="currentColor" stroke-width="2" stroke-linecap="round" stroke-linejoin="round">
    <path d="M4 9q8-3 16 0 0 5-8 5T4 9Z"/>
    <circle cx="9" cy="10.4" r="1.3" fill="currentColor" stroke="none"/>
    <circle cx="15" cy="10.4" r="1.3" fill="currentColor" stroke="none"/>
    <path d="M20 11q3 1 2 4"/>
   </g>
  </symbol>
  <symbol id="g-hollow" viewBox="0 0 24 24">
   <g fill="none" stroke="currentColor" stroke-width="2">
    <circle cx="12" cy="12" r="8"/>
    <path d="M7 17 17 7" stroke-linecap="round"/>
   </g>
  </symbol>
 </defs>
</svg>
