<svg xmlns="http://www.w3.org/2000/svg" width="0" height="0" style="position:absolute" aria-hidden="true">
 <defs>
  <symbol id="p-bear" viewBox="0 0 24 24">
   <g fill="none" stroke="currentColor" stroke-width="2" stroke-linecap="round" stroke-linejoin="round">
    <ellipse cx="12" cy="13" rx="5.5" ry="7"/>
    <circle cx="9" cy="6" r="2.2"/>
    <circle cx="15" cy="6" r="2.2"/>
    <path d="M9 10a1.5 1.5 0 0 0 0 3M15 10a1.5 1.5 0 0 1 0 3"/>
   </g>
  </symbol>
  <symbol id="p-leopard" viewBox="0 0 24 24">
   <g fill="none" stroke="currentColor" stroke-width="2" stroke-linecap="round" stroke-linejoin="round">
    <ellipse cx="11" cy="14" rx="5" ry="7"/>
    <path d="M16 10q5-3 6-8q-3 1-6 4"/>
    <circle cx="8" cy="7" r="2.5"/>
    <circle cx="9.5" cy="12" r=".8" fill="currentColor" stroke="none"/>
    <circle cx="13" cy="10" r=".8" fill="currentColor" stroke="none"/>
    <circle cx="10" cy="16" r=".8" fill="currentColor" stroke="none"/>
   </g>
  </symbol>
  <symbol id="p-snail" viewBox="0 0 24 24">
   <g fill="none" stroke="currentColor" stroke-width="2" stroke-linecap="round" stroke-linejoin="round">
    <path d="M5 20q3-2 4-6"/>
    <path d="M9 14a5 5 0 1 1 2.5-9.3"/>
    <circle cx="13" cy="10" r="5"/>
    <path d="M10 4.5a2.5 2 0 1 1 3.5-1"/>
    <path d="M15 8l2 1"/>
   </g>
  </symbol>
  <symbol id="p-tapir" viewBox="0 0 24 24">
   <g fill="none" stroke="currentColor" stroke-width="2" stroke-linecap="round" stroke-linejoin="round">
    <ellipse cx="12" cy="14" rx="4.5" ry="6"/>
    <path d="M7 12q-5 0-5-4q1-1 3-1q3 0 4 3"/>
    <circle cx="10" cy="8.5" r="1.5"/>
    <path d="M7 20l-1 3M17 20l1 3"/>
   </g>
  </symbol>
  <symbol id="p-mushroom" viewBox="0 0 24 24">
   <g fill="none" stroke="currentColor" stroke-width="2" stroke-linecap="round" stroke-linejoin="round">
    <path d="M5 14q7-8 14 0"/>
    <path d="M9 14v6"/>
    <path d="M15 14v6"/>
    <path d="M5 14q5-3 5-7"/>
    <circle cx="8" cy="10" r="1" fill="currentColor" stroke="none"/>
    <circle cx="16" cy="10" r="1" fill="currentColor" stroke="none"/>
   </g>
  </symbol>
  <symbol id="p-goose" viewBox="0 0 24 24">
   <g fill="none" stroke="currentColor" stroke-width="2" stroke-linecap="round" stroke-linejoin="round">
    <path d="M10 20q-2-3-2-6q0-4 4-6"/>
    <path d="M12 8q3-6 8-4"/>
    <path d="M19 5l3-2"/>
    <ellipse cx="14" cy="13" rx="3" ry="6"/>
    <path d="M11 20l1 3M17 20l-1 3"/>
   </g>
  </symbol>
  <symbol id="p-scorpion" viewBox="0 0 24 24">
   <g fill="none" stroke="currentColor" stroke-width="2" stroke-linecap="round" stroke-linejoin="round">
    <ellipse cx="12" cy="14" rx="3" ry="4"/>
    <path d="M9 12q-5 2-6 6q3-2 5-2"/>
    <path d="M15 12q5 2 6 6q-3-2-5-2"/>
    <path d="M12 10q1-6 6-6q1 2 0 4q-3 0-4-2"/>
    <path d="M10 19l1 3M14 19l-1 3"/>
   </g>
  </symbol>
 </defs>
</svg>
