<svg xmlns="http://www.w3.org/2000/svg" width="0" height="0" style="position:absolute" aria-hidden="true">
 <defs>
  <symbol id="i-gold" viewBox="0 0 24 24">
   <g fill="none" stroke="currentColor" stroke-width="2" stroke-linecap="round" stroke-linejoin="round">
    <circle cx="12" cy="12" r="8"/>
    <path d="M8 14c1 2 6 2 7 0s-2-3-5-4-3-3-2-4 3-1 5 0"/>
    <path d="M12 6v2M12 16v2"/>
   </g>
  </symbol>
  <symbol id="i-relic" viewBox="0 0 24 24">
   <g fill="none" stroke="currentColor" stroke-width="2" stroke-linecap="round" stroke-linejoin="round">
    <path d="M6 4h12v5l-4 3 4 3v5H6v-5l4-3-4-3V4Z"/>
    <path d="M12 12v4"/>
    <circle cx="12" cy="12" r="1.5" fill="currentColor" stroke="none"/>
   </g>
  </symbol>
  <symbol id="i-potency" viewBox="0 0 24 24">
   <g fill="none" stroke="currentColor" stroke-width="2" stroke-linecap="round" stroke-linejoin="round">
    <path d="M12 2l3 7 7-1-5 5 4 6-7-1-2 7-2-7-7 1 4-6-5-5 7 1 3-7Z"/>
    <circle cx="12" cy="12" r="2" fill="currentColor" stroke="none"/>
   </g>
  </symbol>
  <symbol id="i-score" viewBox="0 0 24 24">
   <g fill="none" stroke="currentColor" stroke-width="2" stroke-linecap="round" stroke-linejoin="round">
    <circle cx="12" cy="12" r="9"/>
    <path d="M12 4v3M12 17v3M4 12h3M17 12h3"/>
    <circle cx="12" cy="12" r="3"/>
    <circle cx="12" cy="12" r="1.5" fill="currentColor" stroke="none"/>
   </g>
  </symbol>
  <symbol id="i-treasure" viewBox="0 0 24 24">
   <g fill="none" stroke="currentColor" stroke-width="2" stroke-linecap="round" stroke-linejoin="round">
    <path d="M6 18h12L20 9h-4V6a4 4 0 0 0-8 0v3H4l2 9Z"/>
    <path d="M10 9V6a2 2 0 0 1 4 0v3"/>
    <circle cx="12" cy="13" r="1.5" fill="currentColor" stroke="none"/>
   </g>
  </symbol>
 </defs>
</svg>
