<svg xmlns="http://www.w3.org/2000/svg" width="0" height="0" style="position:absolute" aria-hidden="true">
 <defs>
  <symbol id="i-ruins" viewBox="0 0 24 24">
   <g fill="none" stroke="currentColor" stroke-width="2" stroke-linecap="round" stroke-linejoin="round">
    <path d="M8 21V8l3-4h2l3 4v13"/>
    <path d="M16 12l3-2 2 2-3 2-2-2ZM8 12l-3-2-2 2 3 2 2-2Z"/>
    <path d="M12 10v4"/>
    <path d="M10 18h4"/>
   </g>
  </symbol>
  <symbol id="i-grove" viewBox="0 0 24 24">
   <g fill="none" stroke="currentColor" stroke-width="2" stroke-linecap="round" stroke-linejoin="round">
    <path d="M12 4c-3 2-5 5-5 9 0 3 2 5 5 7 3-2 5-4 5-7 0-4-2-7-5-9Z"/>
    <path d="M12 4l-2 3 2 3 2-3-2-3ZM12 10l-3 3 3 3 3-3-3-3ZM12 16l-1 2 1 2 1-2-1-2Z"/>
    <circle cx="12" cy="12" r="1.5" fill="currentColor" stroke="none"/>
   </g>
  </symbol>
  <symbol id="i-shrine" viewBox="0 0 24 24">
   <g fill="none" stroke="currentColor" stroke-width="2" stroke-linecap="round" stroke-linejoin="round">
    <path d="M8 21V11a4 4 0 0 1 8 0v10"/>
    <path d="M6 21h12"/>
    <path d="M12 11v4"/>
    <circle cx="12" cy="7" r="2" fill="currentColor" stroke="none"/>
    <path d="M9 3l3 2 3-2"/>
   </g>
  </symbol>
  <symbol id="i-well" viewBox="0 0 24 24">
   <g fill="none" stroke="currentColor" stroke-width="2" stroke-linecap="round" stroke-linejoin="round">
    <path d="M5 10h14v7a3 3 0 0 1-3 3H8a3 3 0 0 1-3-3v-7Z"/>
    <path d="M5 10l3-6h8l3 6"/>
    <path d="M10 16l2-2 2 2M12 14v4"/>
   </g>
  </symbol>
  <symbol id="i-camp" viewBox="0 0 24 24">
   <g fill="none" stroke="currentColor" stroke-width="2" stroke-linecap="round" stroke-linejoin="round">
    <path d="M4 21h16"/>
    <path d="M6 21V8l4-4h4l4 4v13"/>
    <path d="M6 14l3-2 3 2 3-2 3 2"/>
    <path d="M10 4v3h4V4"/>
   </g>
  </symbol>
  <symbol id="i-tower" viewBox="0 0 24 24">
   <g fill="none" stroke="currentColor" stroke-width="2" stroke-linecap="round" stroke-linejoin="round">
    <path d="M9 4h6l2 3v12H7V7l2-3Z"/>
    <path d="M7 10l2-1 3 1 3-1 2 1"/>
    <path d="M7 14l2-1 3 1 3-1 2 1"/>
    <path d="M7 18l2-1 3 1 3-1 2 1"/>
    <path d="M10 4v3h4V4"/>
    <circle cx="12" cy="8" r="1.2" fill="currentColor" stroke="none"/>
   </g>
  </symbol>
  <symbol id="i-mine" viewBox="0 0 24 24">
   <g fill="none" stroke="currentColor" stroke-width="2" stroke-linecap="round" stroke-linejoin="round">
    <path d="M8 19V9c0-3 2-5 4-5s4 2 4 5v10"/>
    <path d="M5 21h14"/>
    <path d="M8 12h8"/>
    <path d="M10 9l2 2 2-2"/>
    <path d="M10 15h4"/>
   </g>
  </symbol>
 </defs>
</svg>
